<?xml version="1.0" encoding="UTF-8" standalone="no"?>
<!-- Created with Inkscape (http://www.inkscape.org/) -->

<svg
   xmlns:dc="http://purl.org/dc/elements/1.1/"
   xmlns:cc="http://creativecommons.org/ns#"
   xmlns:rdf="http://www.w3.org/1999/02/22-rdf-syntax-ns#"
   xmlns:svg="http://www.w3.org/2000/svg"
   xmlns="http://www.w3.org/2000/svg"
   xmlns:sodipodi="http://sodipodi.sourceforge.net/DTD/sodipodi-0.dtd"
   xmlns:inkscape="http://www.inkscape.org/namespaces/inkscape"
   width="210mm"
   height="297mm"
   viewBox="0 0 744.09448819 1052.3622047"
   id="svg2"
   version="1.1"
   inkscape:version="0.91 r13725"
   sodipodi:docname="mouth4.svg">
  <defs
     id="defs4" />
  <sodipodi:namedview
     id="base"
     pagecolor="#ffffff"
     bordercolor="#666666"
     borderopacity="1.0"
     inkscape:pageopacity="0.0"
     inkscape:pageshadow="2"
     inkscape:zoom="0.98994949"
     inkscape:cx="361.91171"
     inkscape:cy="520"
     inkscape:document-units="px"
     inkscape:current-layer="layer1"
     showgrid="false"
     inkscape:window-width="1920"
     inkscape:window-height="1035"
     inkscape:window-x="0"
     inkscape:window-y="1"
     inkscape:window-maximized="1" />
  <metadata
     id="metadata7">
    <rdf:RDF>
      <cc:Work
         rdf:about="">
        <dc:format>image/svg+xml</dc:format>
        <dc:type
           rdf:resource="http://purl.org/dc/dcmitype/StillImage" />
        <dc:title></dc:title>
      </cc:Work>
    </rdf:RDF>
  </metadata>
  <g
     inkscape:label="Layer 1"
     inkscape:groupmode="layer"
     id="layer1">
    <path
       style="fill:#000000;fill-opacity:1;fill-rule:evenodd"
       d=""
       id="path4146"
       inkscape:connector-curvature="0" />
    <path
       style="fill:#000000;fill-rule:evenodd;stroke:#000000;stroke-width:1px;stroke-linecap:butt;stroke-linejoin:miter;stroke-opacity:1"
       d="m 132.32998,486.67678 c 67.35086,-4.30668 128.66627,-12.12183 195.9696,-12.12183 40.95368,0 259.23934,-18.55261 262.63966,-15.15229 8.3186,8.3186 3.82699,36.94842 8.08122,45.45687 2.35857,4.71714 2.981,20.30197 2.0203,22.22335 -1.06231,2.12464 3.75978,6.70641 1.01016,8.08122 -10.89456,5.44728 -62.28017,5.05076 -78.7919,5.05076 -4.17348,0 -9.96225,2.15959 -10.10153,2.02031 -5.32509,-5.3251 -1.87299,-19.90844 -5.05076,-26.26397 -1.17549,-2.35097 -3.05371,-9.09137 -2.0203,-9.09137 4.72605,0 -9.41608,1.01015 -14.14214,1.01015 -6.51405,0 -34.57862,-3.80718 -38.3858,0 -1.91958,1.91959 -8.08122,3.72486 -8.08122,1.01016 0,-1.86896 -1.01015,12.89476 -1.01015,26.26396 0,3.13663 2.24314,14.74129 1.01015,15.15229 -7.38309,2.46103 -77.25104,-2.02031 -92.93403,-2.02031 -9.19529,0 -27.0118,-2.15146 -33.33504,1.01016 -2.77664,1.38832 -7.70305,4.79695 -9.09137,2.0203 -7.62192,-15.24385 -4.61331,-31.31473 -18.18274,-31.31473 -100.30184,0 10.02322,34.34519 -73.74114,34.34519 -7.59574,0 -73.74114,15.24554 -73.74114,11.11168 0,-20.77645 0.17885,-62.54004 -6.06091,-65.65992 -3.59742,-1.79871 -6.64499,-3.18844 -8.08122,-6.06091 -1.67704,-3.35409 2.19625,-7.07107 -2.02031,-7.07107"
       id="path4194"
       inkscape:connector-curvature="0" />
  </g>
</svg>
