<?xml version="1.0" encoding="UTF-8" standalone="no"?>
<!-- Created with Inkscape (http://www.inkscape.org/) -->

<svg
   xmlns:dc="http://purl.org/dc/elements/1.1/"
   xmlns:cc="http://creativecommons.org/ns#"
   xmlns:rdf="http://www.w3.org/1999/02/22-rdf-syntax-ns#"
   xmlns:svg="http://www.w3.org/2000/svg"
   xmlns="http://www.w3.org/2000/svg"
   xmlns:sodipodi="http://sodipodi.sourceforge.net/DTD/sodipodi-0.dtd"
   xmlns:inkscape="http://www.inkscape.org/namespaces/inkscape"
   width="210mm"
   height="297mm"
   viewBox="0 0 744.09448819 1052.3622047"
   id="svg2"
   version="1.1"
   inkscape:version="0.91 r13725"
   sodipodi:docname="mouth5.svg">
  <defs
     id="defs4" />
  <sodipodi:namedview
     id="base"
     pagecolor="#ffffff"
     bordercolor="#666666"
     borderopacity="1.0"
     inkscape:pageopacity="0.0"
     inkscape:pageshadow="2"
     inkscape:zoom="0.98994949"
     inkscape:cx="361.91171"
     inkscape:cy="520"
     inkscape:document-units="px"
     inkscape:current-layer="layer1"
     showgrid="false"
     inkscape:window-width="1920"
     inkscape:window-height="1035"
     inkscape:window-x="0"
     inkscape:window-y="1"
     inkscape:window-maximized="1" />
  <metadata
     id="metadata7">
    <rdf:RDF>
      <cc:Work
         rdf:about="">
        <dc:format>image/svg+xml</dc:format>
        <dc:type
           rdf:resource="http://purl.org/dc/dcmitype/StillImage" />
        <dc:title></dc:title>
      </cc:Work>
    </rdf:RDF>
  </metadata>
  <g
     inkscape:label="Layer 1"
     inkscape:groupmode="layer"
     id="layer1">
    <path
       style="fill:#000000;fill-opacity:1;fill-rule:evenodd"
       d=""
       id="path4146"
       inkscape:connector-curvature="0" />
    <path
       style="fill:none;fill-rule:evenodd;stroke:#000000;stroke-width:17;stroke-linecap:butt;stroke-linejoin:miter;stroke-opacity:1;stroke-miterlimit:4;stroke-dasharray:none"
       d="m 32.324881,462.43312 c 59.776182,14.10423 144.352519,5.94706 208.091429,-2.02031 29.83701,-3.72962 61.5381,-2.50508 91.92388,-10.10152 22.41455,-5.60364 44.73198,-10.56264 67.68022,-15.15229 10.03387,-2.00677 23.03446,-1.06915 32.32488,-5.05076 20.11064,-8.61885 46.75721,-8.7314 65.65991,-18.18275 14.37608,-7.18804 30.98334,-10.37303 45.45687,-16.16244 34.33677,-13.73471 70.83134,-30.0483 81.82236,-37.37564"
       id="path4353"
       inkscape:connector-curvature="0" />
    <path
       style="fill:#ff5555;fill-rule:evenodd;stroke:#000000;stroke-width:4;stroke-linecap:butt;stroke-linejoin:miter;stroke-opacity:1;stroke-miterlimit:4;stroke-dasharray:none"
       d="m 249.50768,467.48388 c 13.0123,4.90368 12.96484,42.25926 30.30458,59.599 1.02183,1.02184 0.1654,7.31918 2.0203,10.10153 1.30591,1.95886 6.06092,5.94613 6.06092,10.10152 0,14.60892 10.10152,21.23453 10.10152,35.35534 0,29.64332 -4.04061,68.55285 -4.04061,81.82236 0,5.59421 -0.80196,24.45185 0,25.25381 21.58063,21.58063 59.25809,39.05818 109.09648,51.51778 13.95642,3.48911 30.50022,-5.05076 43.43656,-5.05076 11.29466,0 19.84721,-1.84239 28.28427,-6.06092 14.40849,-7.20424 34.03197,-6.91446 46.46701,-13.13198 20.87437,-10.43718 88.89343,-14.05377 88.89343,-36.36549 0,-1.28522 6.06091,-3.53565 6.06091,-7.07107 0,-3.10438 7.07107,-2.95653 7.07107,-6.06092 0,-4.46765 6.06092,-21.52837 6.06092,-32.32488 0,-26.47782 3.49688,-54.78015 -1.01016,-81.82235 -1.17483,-7.04903 2.13628,-17.9508 -1.01015,-24.24366 -2.25145,-4.50291 -3.84205,-30.10602 -6.06091,-32.32489 -2.8403,-2.84029 -11.00826,-33.93151 -13.13199,-42.4264 -0.95585,-3.8234 0.56569,-7.95999 -1.01015,-11.11168 -12.50808,-25.01616 -22.58752,-51.60012 -24.24366,-56.56854"
       id="path4355"
       inkscape:connector-curvature="0" />
    <path
       style="fill:none;fill-rule:evenodd;stroke:#000000;stroke-width:3.8;stroke-linecap:butt;stroke-linejoin:miter;stroke-opacity:1;stroke-miterlimit:4;stroke-dasharray:none"
       d="m 434.36559,428.08793 c 46.2188,23.88203 63.63961,104.73538 63.63961,154.55334 0,9.61317 -8.53835,30.95348 -6.06091,38.3858"
       id="path4357"
       inkscape:connector-curvature="0" />
    <path
       style="fill:#00ffff;fill-rule:evenodd;stroke:#000000;stroke-width:1px;stroke-linecap:butt;stroke-linejoin:miter;stroke-opacity:1"
       d="m 287.89348,722.04232 c -12.83796,8.20089 -29.91611,20.20305 -33.33504,20.20305 -2.01704,0 -25.12051,37.50895 -10.10152,52.52794 8.92648,8.92648 31.06156,-3.03046 33.33503,-3.03046 9.04481,0 9.70442,-68.11209 10.10153,-69.70053 z"
       id="path4359"
       inkscape:connector-curvature="0" />
    <path
       style="fill:#00ffff;fill-rule:evenodd;stroke:#000000;stroke-width:1px;stroke-linecap:butt;stroke-linejoin:miter;stroke-opacity:1"
       d="m 577.80726,727.09309 c 3.17675,11.07542 3.03045,31.05585 3.03045,40.4061 0,9.43245 8.6369,15.25349 12.12183,22.22335 22.60021,45.20042 78.41736,20.14631 55.55839,-14.14213 -9.61432,-14.42149 -43.80156,-36.08536 -47.47717,-43.43656 -3.87657,-7.75315 -17.234,-6.55064 -23.2335,-5.05076 z"
       id="path4361"
       inkscape:connector-curvature="0" />
    <path
       style="fill:#00ffff;fill-rule:evenodd;stroke:#000000;stroke-width:1px;stroke-linecap:butt;stroke-linejoin:miter;stroke-opacity:1"
       d="m 438.4062,785.68193 c -0.13014,4.0936 -25.25381,34.45104 -25.25381,56.56855 0,22.01778 17.98971,58.68536 42.42641,46.46701 4.91954,-2.45977 5.31222,-5.18149 9.09137,-7.07107 1.34608,-0.67304 0.88477,-5.55938 1.01015,-6.06091 1.42664,-5.70656 7.02088,-23.33389 3.03046,-31.31473 -1.50382,-3.00764 -4.04061,-7.2878 -4.04061,-10.10153 0,-9.16632 -14.55102,-20.01066 -16.16244,-23.2335 -4.54136,-9.08271 -9.1654,-21.50931 -10.10153,-25.25382 z"
       id="path4363"
       inkscape:connector-curvature="0" />
  </g>
</svg>
