<?xml version="1.0" encoding="UTF-8" standalone="no"?>
<!-- Created with Inkscape (http://www.inkscape.org/) -->

<svg
   xmlns:dc="http://purl.org/dc/elements/1.1/"
   xmlns:cc="http://creativecommons.org/ns#"
   xmlns:rdf="http://www.w3.org/1999/02/22-rdf-syntax-ns#"
   xmlns:svg="http://www.w3.org/2000/svg"
   xmlns="http://www.w3.org/2000/svg"
   xmlns:sodipodi="http://sodipodi.sourceforge.net/DTD/sodipodi-0.dtd"
   xmlns:inkscape="http://www.inkscape.org/namespaces/inkscape"
   width="210mm"
   height="297mm"
   viewBox="0 0 744.09448819 1052.3622047"
   id="svg2"
   version="1.1"
   inkscape:version="0.91 r13725"
   sodipodi:docname="mouth7.svg">
  <defs
     id="defs4" />
  <sodipodi:namedview
     id="base"
     pagecolor="#ffffff"
     bordercolor="#666666"
     borderopacity="1.0"
     inkscape:pageopacity="0.0"
     inkscape:pageshadow="2"
     inkscape:zoom="0.98994949"
     inkscape:cx="361.91171"
     inkscape:cy="520"
     inkscape:document-units="px"
     inkscape:current-layer="layer1"
     showgrid="false"
     inkscape:window-width="1920"
     inkscape:window-height="1035"
     inkscape:window-x="0"
     inkscape:window-y="1"
     inkscape:window-maximized="1" />
  <metadata
     id="metadata7">
    <rdf:RDF>
      <cc:Work
         rdf:about="">
        <dc:format>image/svg+xml</dc:format>
        <dc:type
           rdf:resource="http://purl.org/dc/dcmitype/StillImage" />
        <dc:title></dc:title>
      </cc:Work>
    </rdf:RDF>
  </metadata>
  <g
     inkscape:label="Layer 1"
     inkscape:groupmode="layer"
     id="layer1">
    <path
       style="fill:#000000;fill-opacity:1;fill-rule:evenodd"
       d=""
       id="path4146"
       inkscape:connector-curvature="0" />
    <path
       style="fill:#000000;fill-rule:evenodd;stroke:#000000;stroke-width:1px;stroke-linecap:butt;stroke-linejoin:miter;stroke-opacity:1"
       d="m 39.395949,544.25547 c 0.795074,-16.90003 0.983391,-29.25428 7.071068,-38.38579 8.499382,-12.74908 18.906431,-16.95775 31.314729,-26.26397 28.588354,-21.44127 43.304264,-44.41364 79.802054,-53.53808 12.28202,-3.07051 30.80807,-11.11168 34.34518,-11.11168 17.55866,0 32.93933,-5.05076 32.32489,-5.05076 -1.38833,0 2.65228,1.01015 4.04061,1.01015 0.27589,0 -0.23433,8.08122 6.06091,8.08122 12.47696,0 108.4688,1.63782 110.10663,0 1.39906,-1.39906 11.77062,-0.35121 7.07107,-5.05076 -0.11652,-0.11652 -2.02031,-1.34653 -2.02031,-4.04061 0,-1.01016 0,-2.02031 0,-3.03046 0,-2.02031 4.2539,0.90351 6.06092,0 3.43186,-1.71593 19.93954,-3.29396 22.22335,-1.01015 1.64703,1.64703 4.12549,11.11167 5.05076,11.11167 11.02868,0 28.41635,-1.01015 40.40611,-1.01015 13.66447,0 73.53007,1.09458 83.84266,-3.03046 0.35281,-0.14112 7.95572,-0.88465 8.08122,-1.01015 1.69444,-1.69444 -1.24276,-13.13198 0,-13.13198 7.05718,0 17.12524,1.01015 25.25381,1.01015 41.26985,0 130.30968,25.37368 130.30968,36.36549 0,37.4463 -22.45095,54.88963 -36.36549,75.76144 -11.87669,17.81504 -33.33504,75.41694 -33.33504,81.82236 0,5.75839 -50.3542,19.03947 -65.65991,34.34519 -7.15214,7.15214 -17.82036,-12.12183 -23.23351,-12.12183 -26.11251,0 -53.66505,5.05076 -73.74114,5.05076 -3.27182,0 6.98409,16.24942 4.04061,19.1929 -1.22754,1.22754 -9.22227,0 -11.11167,0 -8.589,0 -44.59921,1.8678 -46.46702,0 -1.60801,-1.60802 1.67807,-19.75226 -6.06092,-17.1726 -22.82406,7.60802 -59.11815,0 -83.84266,0 -12.98808,0 0.92078,25.23147 -19.1929,20.20305 -3.30804,-0.82701 -6.06091,-19.01823 -6.06091,-31.31473 0,-2.97252 -1.34135,-9.43913 0,-12.12183 1.14833,-2.29665 1.25506,-6.06091 1.01015,-6.06091 -4.59484,0 -11.20068,18.71676 -12.12183,24.24366 -3.14536,18.87215 -13.13198,19.10507 -13.13198,26.26397 0,4.75212 -6.57158,-41.91575 -7.07107,-41.41626 -19.09629,19.0963 -19.33578,27.85064 -26.26397,31.31473 -3.13695,1.56848 -21.83542,-7.07107 -25.25381,-7.07107 -24.96083,0 -53.48207,1.38422 -73.74113,-12.12183 -9.33725,-6.22483 -12.40381,-29.94048 -29.294429,-38.38579 -10.440279,-5.22014 -44.344958,-32.12138 -44.446712,-32.32489 z"
       id="path4422"
       inkscape:connector-curvature="0" />
  </g>
</svg>
