<?xml version="1.0" encoding="UTF-8" standalone="no"?>
<!-- Created with Inkscape (http://www.inkscape.org/) -->

<svg
   xmlns:dc="http://purl.org/dc/elements/1.1/"
   xmlns:cc="http://creativecommons.org/ns#"
   xmlns:rdf="http://www.w3.org/1999/02/22-rdf-syntax-ns#"
   xmlns:svg="http://www.w3.org/2000/svg"
   xmlns="http://www.w3.org/2000/svg"
   xmlns:sodipodi="http://sodipodi.sourceforge.net/DTD/sodipodi-0.dtd"
   xmlns:inkscape="http://www.inkscape.org/namespaces/inkscape"
   width="210mm"
   height="297mm"
   viewBox="0 0 744.09448819 1052.3622047"
   id="svg2"
   version="1.1"
   inkscape:version="0.91 r13725"
   sodipodi:docname="mouth9.svg">
  <defs
     id="defs4" />
  <sodipodi:namedview
     id="base"
     pagecolor="#ffffff"
     bordercolor="#666666"
     borderopacity="1.0"
     inkscape:pageopacity="0.0"
     inkscape:pageshadow="2"
     inkscape:zoom="0.7"
     inkscape:cx="403.13229"
     inkscape:cy="514.77652"
     inkscape:document-units="px"
     inkscape:current-layer="layer1"
     showgrid="false"
     inkscape:window-width="1280"
     inkscape:window-height="756"
     inkscape:window-x="0"
     inkscape:window-y="1"
     inkscape:window-maximized="1" />
  <metadata
     id="metadata7">
    <rdf:RDF>
      <cc:Work
         rdf:about="">
        <dc:format>image/svg+xml</dc:format>
        <dc:type
           rdf:resource="http://purl.org/dc/dcmitype/StillImage" />
        <dc:title></dc:title>
      </cc:Work>
    </rdf:RDF>
  </metadata>
  <g
     inkscape:label="Layer 1"
     inkscape:groupmode="layer"
     id="layer1">
    <flowRoot
       xml:space="preserve"
       id="flowRoot4142"
       style="fill:black;stroke:none;stroke-opacity:1;stroke-width:1px;stroke-linejoin:miter;stroke-linecap:butt;fill-opacity:1;font-family:sans-serif;font-style:normal;font-weight:normal;font-size:40px;line-height:125%;letter-spacing:0px;word-spacing:0px"><flowRegion
         id="flowRegion4144"><rect
           id="rect4146"
           width="91.428574"
           height="51.42857"
           x="214.28572"
           y="398.07648" /></flowRegion><flowPara
         id="flowPara4148"></flowPara></flowRoot>    <text
       xml:space="preserve"
       style="font-style:normal;font-weight:normal;font-size:40px;line-height:125%;font-family:sans-serif;letter-spacing:0px;word-spacing:0px;fill:#000000;fill-opacity:1;stroke:none;stroke-width:1px;stroke-linecap:butt;stroke-linejoin:miter;stroke-opacity:1"
       x="540"
       y="179.50507"
       id="text4154"
       sodipodi:linespacing="125%"><tspan
         sodipodi:role="line"
         id="tspan4156"
         x="540"
         y="179.50507" /></text>
    <flowRoot
       xml:space="preserve"
       id="flowRoot4158"
       style="font-style:normal;font-weight:normal;font-size:40px;line-height:125%;font-family:sans-serif;letter-spacing:0px;word-spacing:0px;fill:#ffffff;fill-opacity:1;stroke:none;stroke-width:1px;stroke-linecap:butt;stroke-linejoin:miter;stroke-opacity:1"><flowRegion
         id="flowRegion4160"><rect
           id="rect4162"
           width="65.714294"
           height="58.571415"
           x="378.57144"
           y="426.64792"
           style="fill:#ffffff" /></flowRegion><flowPara
         id="flowPara4164" /></flowRoot>    <text
       xml:space="preserve"
       style="font-style:normal;font-weight:normal;font-size:40px;line-height:125%;font-family:sans-serif;letter-spacing:0px;word-spacing:0px;fill:#000000;fill-opacity:1;stroke:none;stroke-width:1px;stroke-linecap:butt;stroke-linejoin:miter;stroke-opacity:1"
       x="657.14288"
       y="56.647919"
       id="text4182"
       sodipodi:linespacing="125%"><tspan
         sodipodi:role="line"
         id="tspan4184"
         x="657.14288"
         y="56.647919"></tspan><tspan
         sodipodi:role="line"
         x="657.14288"
         y="106.64792"
         id="tspan4186" /></text>
    <flowRoot
       xml:space="preserve"
       id="flowRoot4188"
       style="fill:black;stroke:none;stroke-opacity:1;stroke-width:1px;stroke-linejoin:miter;stroke-linecap:butt;fill-opacity:1;font-family:sans-serif;font-style:normal;font-weight:normal;font-size:40px;line-height:125%;letter-spacing:0px;word-spacing:0px"><flowRegion
         id="flowRegion4190"><rect
           id="rect4192"
           width="364.28571"
           height="241.42857"
           x="511.42856"
           y="28.07649" /></flowRegion><flowPara
         id="flowPara4194"></flowPara></flowRoot>    <flowRoot
       xml:space="preserve"
       id="flowRoot4236"
       style="font-style:normal;font-weight:normal;font-size:40px;line-height:125%;font-family:sans-serif;letter-spacing:0px;word-spacing:0px;fill:#000000;fill-opacity:1;stroke:none;stroke-width:1px;stroke-linecap:butt;stroke-linejoin:miter;stroke-opacity:1"><flowRegion
         id="flowRegion4238"><rect
           id="rect4240"
           width="98.571426"
           height="57.142857"
           x="244.28572"
           y="369.50507" /></flowRegion><flowPara
         id="flowPara4242" /></flowRoot>    <flowRoot
       xml:space="preserve"
       id="flowRoot4244"
       style="fill:black;stroke:none;stroke-opacity:1;stroke-width:1px;stroke-linejoin:miter;stroke-linecap:butt;fill-opacity:1;font-family:sans-serif;font-style:normal;font-weight:normal;font-size:40px;line-height:125%;letter-spacing:0px;word-spacing:0px"><flowRegion
         id="flowRegion4246"><rect
           id="rect4248"
           width="492.85715"
           height="447.14285"
           x="52.857143"
           y="265.21936" /></flowRegion><flowPara
         id="flowPara4250"></flowPara></flowRoot>    <flowRoot
       xml:space="preserve"
       id="flowRoot4252"
       style="fill:black;stroke:none;stroke-opacity:1;stroke-width:1px;stroke-linejoin:miter;stroke-linecap:butt;fill-opacity:1;font-family:sans-serif;font-style:normal;font-weight:normal;font-size:40px;line-height:125%;letter-spacing:0px;word-spacing:0px"><flowRegion
         id="flowRegion4254"><rect
           id="rect4256"
           width="711.42859"
           height="400"
           x="-42.857143"
           y="256.64792" /></flowRegion><flowPara
         id="flowPara4258"></flowPara></flowRoot>    <text
       xml:space="preserve"
       style="font-style:normal;font-weight:normal;font-size:40px;line-height:125%;font-family:sans-serif;letter-spacing:0px;word-spacing:0px;fill:#000000;fill-opacity:1;stroke:none;stroke-width:1px;stroke-linecap:butt;stroke-linejoin:miter;stroke-opacity:1"
       x="535.71429"
       y="468.07648"
       id="text4268"
       sodipodi:linespacing="125%"><tspan
         sodipodi:role="line"
         id="tspan4270"
         x="535.71429"
         y="468.07648"></tspan><tspan
         sodipodi:role="line"
         x="535.71429"
         y="518.07648"
         id="tspan4272" /></text>
    <text
       xml:space="preserve"
       style="font-style:normal;font-weight:normal;font-size:40px;line-height:125%;font-family:sans-serif;letter-spacing:0px;word-spacing:0px;fill:#000000;fill-opacity:1;stroke:none;stroke-width:1px;stroke-linecap:butt;stroke-linejoin:miter;stroke-opacity:1"
       x="411.42856"
       y="503.79077"
       id="text4282"
       sodipodi:linespacing="125%"><tspan
         sodipodi:role="line"
         id="tspan4284"
         x="411.42856"
         y="503.79077" /></text>
    <flowRoot
       xml:space="preserve"
       id="flowRoot4318"
       style="font-style:normal;font-weight:normal;font-size:40px;line-height:125%;font-family:sans-serif;letter-spacing:0px;word-spacing:0px;fill:#ffffff;fill-opacity:1;stroke:none;stroke-width:1px;stroke-linecap:butt;stroke-linejoin:miter;stroke-opacity:1"><flowRegion
         id="flowRegion4320"><rect
           id="rect4322"
           width="55.714287"
           height="41.42857"
           x="400"
           y="440.93362"
           style="fill:#ffffff" /></flowRegion><flowPara
         id="flowPara4324">offjz</flowPara></flowRoot>    <flowRoot
       xml:space="preserve"
       id="flowRoot4334"
       style="font-style:normal;font-weight:normal;font-size:40px;line-height:125%;font-family:sans-serif;letter-spacing:0px;word-spacing:0px;fill:#ffffff;fill-opacity:1;stroke:none;stroke-width:1px;stroke-linecap:butt;stroke-linejoin:miter;stroke-opacity:1"><flowRegion
         id="flowRegion4336"><rect
           id="rect4338"
           width="47.142857"
           height="40"
           x="477.14285"
           y="522.36218"
           style="fill:#ffffff" /></flowRegion><flowPara
         id="flowPara4340">ss</flowPara></flowRoot>    <flowRoot
       xml:space="preserve"
       id="flowRoot4354"
       style="font-style:normal;font-weight:normal;font-size:40px;line-height:125%;font-family:sans-serif;letter-spacing:0px;word-spacing:0px;fill:#ffffff;fill-opacity:1;stroke:none;stroke-width:1px;stroke-linecap:butt;stroke-linejoin:miter;stroke-opacity:1"><flowRegion
         id="flowRegion4356"><rect
           id="rect4358"
           width="42.857143"
           height="44.285713"
           x="555.71429"
           y="469.50507"
           style="fill:#ffffff" /></flowRegion><flowPara
         id="flowPara4360">veve</flowPara></flowRoot>    <text
       xml:space="preserve"
       style="font-style:normal;font-weight:normal;font-size:40px;line-height:125%;font-family:sans-serif;letter-spacing:0px;word-spacing:0px;fill:#000000;fill-opacity:1;stroke:none;stroke-width:1px;stroke-linecap:butt;stroke-linejoin:miter;stroke-opacity:1"
       x="594.28571"
       y="733.79077"
       id="text4397"
       sodipodi:linespacing="125%"><tspan
         sodipodi:role="line"
         id="tspan4399"
         x="594.28571"
         y="733.79077" /></text>
    <flowRoot
       xml:space="preserve"
       id="flowRoot4481"
       style="fill:black;stroke:none;stroke-opacity:1;stroke-width:1px;stroke-linejoin:miter;stroke-linecap:butt;fill-opacity:1;font-family:sans-serif;font-style:normal;font-weight:normal;font-size:40px;line-height:125%;letter-spacing:0px;word-spacing:0px"><flowRegion
         id="flowRegion4483"><rect
           id="rect4485"
           width="600"
           height="475.71429"
           x="47.142857"
           y="283.79077" /></flowRegion><flowPara
         id="flowPara4487"></flowPara></flowRoot>    <path
       style="fill:#ffffff;fill-rule:evenodd;stroke:#000000;stroke-width:15;stroke-linecap:butt;stroke-linejoin:miter;stroke-opacity:1;stroke-miterlimit:4;stroke-dasharray:none"
       d="m 110,689.50506 c -19.258269,-38.51654 -49.105453,-115.83358 -31.428571,-200 31.707231,4.90099 61.223711,-1.42857 91.428571,-1.42857 13.43968,0 83.65236,6.34764 91.42857,-1.42857 12.93635,-12.93635 78.59794,-17.14286 98.57143,-17.14286 17.47637,0 50.0301,5.70425 67.14286,0 22.24587,-7.41529 45.30413,-10 68.57143,-10 21.55584,0 114.28571,-27.62483 114.28571,-22.85714 0,25.03147 33.87863,102.04298 38.57143,111.42857 0.34621,0.69243 10.47026,45.71429 5.71428,45.71429 -6.70043,0 -113.83828,77.62726 -137.14285,84.28571 -29.20025,8.34293 -64.82889,8.57143 -94.28572,8.57143 -28.52249,0 -55.70546,11.42857 -84.28571,11.42857 -87.89311,0 -181.83716,7.39785 -228.57143,-4.28571"
       id="path4493"
       inkscape:connector-curvature="0" />
    <path
       style="fill:#ffffff;fill-opacity:1;fill-rule:evenodd;stroke-width:15;stroke-miterlimit:4;stroke-dasharray:none"
       d="m 163.56087,692.125 c -16.50273,-0.80473 -42.35944,-3.56162 -45.56803,-4.85853 -1.65187,-0.66769 -2.51043,-1.25471 -1.90791,-1.30451 0.60252,-0.0499 -0.50673,-3.2524 -2.465,-7.11688 -10.96303,-21.63448 -22.743003,-57.97567 -28.231521,-87.09417 -2.571691,-13.6437 -3.139162,-21.92729 -3.191933,-46.5938 -0.0353,-16.5 0.464219,-33.69643 1.110042,-38.21428 l 1.174223,-8.21429 19.459259,0 c 10.70259,0 28.49562,-0.7143 39.54006,-1.58733 14.96609,-1.18302 29.35941,-1.15787 56.50938,0.0987 42.874,1.98439 58.04653,0.89415 66.70561,-4.79325 14.0632,-9.23688 49.79807,-14.47589 94.00867,-13.7824 58.39166,0.91594 60.18245,0.83741 74.28572,-3.25781 16.59551,-4.8189 27.0537,-6.3921 53.0645,-7.98235 21.98608,-1.34419 30.09007,-2.85729 84.04055,-15.69127 16.47922,-3.92015 30.0715,-7.0034 30.20512,-6.85165 0.13357,0.15174 1.91454,6.58634 3.95767,14.29911 4.17504,15.76079 16.87434,50.21503 28.00386,75.97678 4.74068,10.97337 8.38941,22.1738 10.13858,31.12209 3.6067,18.45104 3.53695,21.92954 -0.48171,24.02421 -1.76786,0.92147 -22.5,14.35563 -46.07143,29.8537 -52.81349,34.72453 -74.70416,47.94865 -83.88591,50.67533 -13.86219,4.11663 -38.0713,6.68664 -74.68552,7.92853 -33.01971,1.11997 -39.52158,1.75217 -58.57143,5.69519 -19.95813,4.13101 -24.41848,4.51822 -65,5.6429 -55.75921,1.54531 -139.21082,2.65655 -152.14285,2.02594 z"
       id="path4495"
       inkscape:connector-curvature="0" />
    <path
       style="fill:none;fill-rule:evenodd;stroke:#000000;stroke-width:1px;stroke-linecap:butt;stroke-linejoin:miter;stroke-opacity:1"
       d="m 105.71429,685.21935 11.42857,12.85714"
       id="path4497"
       inkscape:connector-curvature="0" />
    <path
       style="fill:none;fill-rule:evenodd;stroke:#000000;stroke-width:7.6;stroke-linecap:butt;stroke-linejoin:miter;stroke-opacity:1;stroke-miterlimit:4;stroke-dasharray:none"
       d="m 127.14286,693.79078 c -12.73892,1.26285 -22.0855,4.51514 -25.71429,-10"
       id="path4499"
       inkscape:connector-curvature="0" />
    <path
       style="fill:none;fill-rule:evenodd;stroke:#000000;stroke-width:7;stroke-linecap:butt;stroke-linejoin:miter;stroke-opacity:1;stroke-miterlimit:4;stroke-dasharray:none"
       d="m 358.57143,475.21935 c 15.24186,59.22166 14.28571,78.26142 14.28571,122.85714 0,9.65123 11.17829,28.32115 15.71429,32.85714 12.66883,12.66884 6.30725,42.37187 8.57143,51.42857"
       id="path4501"
       inkscape:connector-curvature="0" />
    <path
       style="fill:none;fill-rule:evenodd;stroke:#000000;stroke-width:7;stroke-linecap:butt;stroke-linejoin:miter;stroke-opacity:1;stroke-miterlimit:4;stroke-dasharray:none"
       d="m 480,465.21935 c -2.71544,16.25754 40.44628,98.57143 42.85714,98.57143 4.78566,0 -2.58926,9.64294 -1.42857,14.28571 3.70008,14.80032 11.42857,21.93678 11.42857,35.71429 0,11.55372 11.73357,24.07712 14.28572,34.28571"
       id="path4503"
       inkscape:connector-curvature="0" />
    <path
       style="fill:none;fill-rule:evenodd;stroke:#000000;stroke-width:7;stroke-linecap:butt;stroke-linejoin:miter;stroke-opacity:1;stroke-miterlimit:4;stroke-dasharray:none"
       d="m 208.57143,495.21935 c 0,11.42857 0,22.85714 0,34.28571 0,12.85389 -1.99167,37.74762 0,45.71429 7.69458,30.7783 45.71428,64.56471 45.71428,80 0,7.3114 -1.42857,24.66535 -1.42857,40"
       id="path4505"
       inkscape:connector-curvature="0" />
    <path
       style="fill:none;fill-rule:evenodd;stroke:#000000;stroke-width:7;stroke-linecap:butt;stroke-linejoin:miter;stroke-opacity:1;stroke-miterlimit:4;stroke-dasharray:none"
       d="m 124.28571,498.07649 c 8.66602,38.82123 17.14286,67.16544 17.14286,98.57143 0,8.59561 0.98328,22.85714 1.42857,22.85714 4.13301,0 15.82745,31.42857 18.57143,31.42857 9.33128,0 10,33.42859 10,40"
       id="path4507"
       inkscape:connector-curvature="0" />
    <path
       style="fill:none;fill-rule:evenodd;stroke:#000000;stroke-width:1px;stroke-linecap:butt;stroke-linejoin:miter;stroke-opacity:1"
       d="m 548.57143,659.50506 c 1.10244,-12.40067 -2.86134,-12.87393 -4.28572,-18.57143"
       id="path4509"
       inkscape:connector-curvature="0" />
    <path
       style="fill:none;fill-rule:evenodd;stroke:#000000;stroke-width:7;stroke-linecap:butt;stroke-linejoin:miter;stroke-opacity:1;stroke-miterlimit:4;stroke-dasharray:none"
       d="m 570,450.93363 c 1.64909,5.93508 0.25413,13.28646 1.42857,18.57143 4.62169,20.79758 22.02379,54.04758 30,70 15.90496,31.80993 5.71429,72.66653 5.71429,77.14286"
       id="path4511"
       inkscape:connector-curvature="0" />
    <path
       style="fill:none;fill-rule:evenodd;stroke:#000000;stroke-width:7;stroke-linecap:butt;stroke-linejoin:miter;stroke-opacity:1;stroke-miterlimit:4;stroke-dasharray:none"
       d="m 81.428571,602.3622 c 30.356329,-0.81362 49.624319,-5.71428 59.999999,-5.71428"
       id="path4513"
       inkscape:connector-curvature="0" />
    <path
       style="fill:none;fill-rule:evenodd;stroke:#000000;stroke-width:7;stroke-linecap:butt;stroke-linejoin:miter;stroke-opacity:1;stroke-miterlimit:4;stroke-dasharray:none"
       d="m 151.42857,633.79078 c 38.0515,-3.38433 58.8875,-19.36474 72.85714,-22.85715"
       id="path4515"
       inkscape:connector-curvature="0" />
    <path
       style="fill:none;fill-rule:evenodd;stroke:#000000;stroke-width:7;stroke-linecap:butt;stroke-linejoin:miter;stroke-opacity:1;stroke-miterlimit:4;stroke-dasharray:none"
       d="m 218.57143,595.21935 c 53.35533,1.54793 144.68921,-0.45802 154.28571,-2.85715"
       id="path4517"
       inkscape:connector-curvature="0" />
    <path
       style="fill:none;fill-rule:evenodd;stroke:#000000;stroke-width:7;stroke-linecap:butt;stroke-linejoin:miter;stroke-opacity:1;stroke-miterlimit:4;stroke-dasharray:none"
       d="m 380,613.79078 c 66.74653,-12.74483 136.80906,-22.95053 142.85714,-47.14286"
       id="path4519"
       inkscape:connector-curvature="0" />
    <path
       style="fill:none;fill-rule:evenodd;stroke:#000000;stroke-width:7;stroke-linecap:butt;stroke-linejoin:miter;stroke-opacity:1;stroke-miterlimit:4;stroke-dasharray:none"
       d="m 605.71429,550.93363 c -37.53814,0.74595 -71.83213,3.31518 -87.14286,7.14286"
       id="path4521"
       inkscape:connector-curvature="0" />
    <path
       style="fill:none;fill-rule:evenodd;stroke:#000000;stroke-width:7;stroke-linecap:butt;stroke-linejoin:miter;stroke-opacity:1;stroke-miterlimit:4;stroke-dasharray:none"
       d="m 597.14286,530.93363 c 1.31075,-16.39722 20,-24.60235 20,-38.57143"
       id="path4523"
       inkscape:connector-curvature="0" />
  </g>
</svg>
