<?xml version="1.0" encoding="UTF-8" standalone="no"?>
<!-- Created with Inkscape (http://www.inkscape.org/) -->

<svg
   xmlns:dc="http://purl.org/dc/elements/1.1/"
   xmlns:cc="http://creativecommons.org/ns#"
   xmlns:rdf="http://www.w3.org/1999/02/22-rdf-syntax-ns#"
   xmlns:svg="http://www.w3.org/2000/svg"
   xmlns="http://www.w3.org/2000/svg"
   xmlns:sodipodi="http://sodipodi.sourceforge.net/DTD/sodipodi-0.dtd"
   xmlns:inkscape="http://www.inkscape.org/namespaces/inkscape"
   width="210mm"
   height="297mm"
   viewBox="0 0 744.09448819 1052.3622047"
   id="svg2"
   version="1.1"
   inkscape:version="0.91 r13725"
   sodipodi:docname="mouth2.svg">
  <defs
     id="defs4" />
  <sodipodi:namedview
     id="base"
     pagecolor="#ffffff"
     bordercolor="#666666"
     borderopacity="1.0"
     inkscape:pageopacity="0.0"
     inkscape:pageshadow="2"
     inkscape:zoom="0.98994949"
     inkscape:cx="361.91171"
     inkscape:cy="520"
     inkscape:document-units="px"
     inkscape:current-layer="layer1"
     showgrid="false"
     inkscape:window-width="1920"
     inkscape:window-height="1035"
     inkscape:window-x="0"
     inkscape:window-y="1"
     inkscape:window-maximized="1" />
  <metadata
     id="metadata7">
    <rdf:RDF>
      <cc:Work
         rdf:about="">
        <dc:format>image/svg+xml</dc:format>
        <dc:type
           rdf:resource="http://purl.org/dc/dcmitype/StillImage" />
        <dc:title></dc:title>
      </cc:Work>
    </rdf:RDF>
  </metadata>
  <g
     inkscape:label="Layer 1"
     inkscape:groupmode="layer"
     id="layer1">
    <path
       style="fill:none;fill-rule:evenodd;stroke:#000000;stroke-width:1px;stroke-linecap:butt;stroke-linejoin:miter;stroke-opacity:1"
       d="m 125.25892,405.86458 c 102.50155,45.34491 249.87929,106.79981 364.66506,83.84266 17.73137,-3.54628 92.93404,-17.81418 92.93404,-16.16244 0,159.41517 -224.18089,124.24876 -339.41126,124.24876 -19.71523,0 -107.64537,-174.86022 -118.18784,-191.92898 z"
       id="path4142"
       inkscape:connector-curvature="0" />
    <path
       style="fill:#000000;fill-opacity:1;fill-rule:evenodd"
       d="m 290.59494,598.12051 c -17.50089,-0.71655 -35.83666,-1.35002 -40.74614,-1.40771 l -8.92634,-0.10489 -5.21579,-5.35409 c -12.86398,-13.20504 -38.62033,-54.77595 -71.16086,-114.85407 -26.99445,-49.83863 -36.25528,-67.19649 -36.01521,-67.50443 0.1412,-0.18111 8.8211,3.38592 19.28868,7.92672 125.26709,54.34042 214.48523,78.7141 288.23763,78.7442 24.70273,0.0101 34.72024,-1.24832 83.33758,-10.46891 24.57441,-4.66069 59.21554,-10.71788 61.29571,-10.71788 0.81262,0 0.95264,3.10041 0.49039,10.85914 -2.86404,48.07291 -31.35803,82.01609 -83.29366,99.2228 -18.32191,6.0702 -36.66489,9.73321 -66.37571,13.25495 -13.85888,1.64275 -104.32779,1.90223 -140.91628,0.40417 z"
       id="path4144"
       inkscape:connector-curvature="0" />
    <path
       style="fill:#000000;fill-opacity:1;fill-rule:evenodd"
       d=""
       id="path4146"
       inkscape:connector-curvature="0" />
    <path
       style="fill:#000000;fill-opacity:1;fill-rule:evenodd"
       d="m 292.11017,598.65048 c 3.80423,-0.50368 -3.15385,-0.71062 -18.68782,-0.5558 -16.88044,0.16824 -21.21603,0.0242 -13.63706,-0.45278 l 11.11168,-0.69945 -15.65737,-0.0188 c -8.61155,-0.0104 -15.43008,-0.26248 -15.15229,-0.56026 0.2778,-0.29778 -1.78854,-2.97834 -4.59185,-5.95681 -13.70018,-14.55623 -37.2779,-52.67181 -71.46015,-115.52207 -26.57176,-48.857 -34.88697,-64.65233 -34.17499,-64.91787 0.39539,-0.14746 8.12414,2.89144 17.175,6.75311 9.183,3.91805 17.16021,6.75104 18.0492,6.4099 0.96535,-0.37044 1.33617,-0.19563 0.94109,0.44363 -0.8532,1.38049 8.95354,5.46179 11.12325,4.62919 1.02899,-0.39485 1.40014,-0.22818 0.98558,0.44259 -0.85005,1.37543 1.83553,2.43332 4.03481,1.58937 1.01972,-0.3913 1.42954,-0.23825 1.04183,0.38907 -0.85523,1.3838 3.88013,3.46609 6.01727,2.64599 1.06403,-0.40831 1.44588,-0.24994 1.02792,0.42633 -0.85005,1.37543 1.83553,2.43332 4.03481,1.58938 1.05413,-0.40451 1.43297,-0.24381 1.01596,0.43093 -0.85006,1.37542 1.83552,2.43332 4.03481,1.58937 1.05412,-0.4045 1.43296,-0.24381 1.01595,0.43093 -0.85006,1.37543 1.83553,2.43332 4.03481,1.58938 1.22839,-0.47138 1.45573,-0.28065 0.84444,0.70844 -0.61129,0.98909 -0.38395,1.17982 0.84444,0.70845 0.92452,-0.35477 1.68094,-0.21901 1.68094,0.3017 0,0.52072 0.75642,0.65648 1.68094,0.30171 1.19516,-0.45862 1.45053,-0.27222 0.88365,0.645 -0.59738,0.96659 -0.2273,1.10914 1.47602,0.56852 1.42712,-0.45295 2.04038,-0.34463 1.64753,0.29101 -0.81847,1.32432 1.92329,2.35125 4.07402,1.52593 1.05412,-0.4045 1.43297,-0.24381 1.01596,0.43093 -0.85006,1.37543 1.83552,2.43332 4.0348,1.58938 1.19517,-0.45863 1.45053,-0.27223 0.88366,0.645 -0.59739,0.96659 -0.22731,1.10913 1.47602,0.56852 1.42712,-0.45295 2.04037,-0.34463 1.64753,0.291 -0.81847,1.32432 1.92328,2.35125 4.07401,1.52593 1.19516,-0.45862 1.45054,-0.27222 0.88366,0.645 -0.59739,0.96659 -0.22731,1.10914 1.47602,0.56852 1.43649,-0.45592 2.04126,-0.34606 1.64293,0.29846 -0.81122,1.31258 4.96676,3.35072 7.13753,2.51771 1.16922,-0.44867 1.41932,-0.25684 0.8552,0.65593 -0.59739,0.96658 -0.22732,1.10913 1.47601,0.56851 1.65121,-0.52407 2.06586,-0.38585 1.51523,0.50508 -0.55062,0.89093 -0.13597,1.02915 1.51523,0.50508 1.65121,-0.52407 2.06585,-0.38586 1.51523,0.50507 -0.55062,0.89093 -0.13598,1.02915 1.51523,0.50508 1.42712,-0.45295 2.04038,-0.34463 1.64753,0.291 -0.81847,1.32432 1.92329,2.35125 4.07401,1.52594 1.19517,-0.45863 1.45054,-0.27223 0.88367,0.645 -0.5974,0.96659 -0.22732,1.10913 1.47601,0.56852 1.65121,-0.52407 2.06585,-0.38586 1.51523,0.50507 -0.55063,0.89093 -0.13598,1.02915 1.51523,0.50508 1.6512,-0.52407 2.06585,-0.38585 1.51523,0.50508 -0.55063,0.89092 -0.13598,1.02914 1.51523,0.50507 1.6512,-0.52407 2.06585,-0.38585 1.51522,0.50508 -0.55062,0.89093 -0.13597,1.02915 1.51523,0.50507 1.65121,-0.52407 2.06586,-0.38585 1.51523,0.50508 -0.55062,0.89093 -0.13598,1.02915 1.51523,0.50508 1.65121,-0.52407 2.06585,-0.38586 1.51523,0.50507 -0.55062,0.89093 -0.13598,1.02915 1.51523,0.50508 1.6512,-0.52407 2.06585,-0.38585 1.51523,0.50508 -0.55063,0.89093 -0.13598,1.02914 1.51523,0.50507 1.69343,-0.53747 2.07191,-0.39565 1.48377,0.55598 -0.57489,0.93019 -0.19735,1.12263 1.38873,0.70787 1.19804,-0.3133 2.17826,-0.12699 2.17826,0.41402 0,0.54328 0.96111,0.67861 2.1468,0.30229 1.54152,-0.48926 1.93307,-0.33553 1.38873,0.54522 -0.55062,0.89093 -0.13597,1.02915 1.51523,0.50508 1.65121,-0.52407 2.06585,-0.38585 1.51523,0.50508 -0.55062,0.89093 -0.13598,1.02914 1.51523,0.50507 1.4247,-0.45218 2.04014,-0.34426 1.64871,0.2891 -0.79636,1.28854 3.6877,2.45089 6.01287,1.55864 1.26834,-0.4867 1.53809,-0.31482 0.96393,0.6142 -0.59078,0.95589 -0.24122,1.11355 1.34951,0.60867 1.32805,-0.42151 2.14681,-0.24419 2.14681,0.46493 0,0.70911 0.81876,0.88643 2.14681,0.46492 1.57243,-0.49907 1.93751,-0.34273 1.36456,0.58433 -0.58775,0.95099 -0.0959,1.09342 1.97844,0.57281 1.95422,-0.49048 2.55146,-0.35435 2.04447,0.46597 -0.5007,0.81016 -0.0321,0.94176 1.55709,0.43735 1.68395,-0.53447 2.07051,-0.39339 1.49107,0.54418 -0.58775,0.95099 -0.0959,1.09341 1.97844,0.5728 2.00064,-0.50212 2.55685,-0.36307 2.02031,0.50508 -0.53656,0.86815 0.0197,1.00721 2.0203,0.50508 1.61158,-0.40448 2.52044,-0.30417 2.18352,0.24099 -0.77789,1.25865 8.14818,3.43206 10.72996,2.61263 1.48953,-0.47276 1.83813,-0.30424 1.27052,0.61418 -0.58775,0.95099 -0.0959,1.09341 1.97844,0.57281 1.95396,-0.49042 2.55144,-0.35431 2.04459,0.46577 -0.51285,0.82982 0.25153,0.96726 2.69328,0.48427 2.15392,-0.42605 2.92131,-0.3366 2.08396,0.24291 -1.79085,1.2394 19.90996,5.55317 23.72873,4.71688 2.29279,-0.5021 2.55403,-0.39464 1.33527,0.54921 -1.18919,0.92096 -0.53711,1.04413 3.03046,0.57245 3.41132,-0.45103 4.16757,-0.32738 3.03046,0.4955 -1.13446,0.82096 -0.24599,0.95642 3.53553,0.53903 3.73846,-0.41264 4.52584,-0.29643 3.03046,0.44725 -1.49527,0.74362 -0.57645,0.8791 3.53553,0.52129 3.33689,-0.29036 4.75611,-0.15703 3.55346,0.33386 -2.78622,1.13724 8.75688,2.38986 15.82945,1.71777 4.25374,-0.40423 4.73776,-0.31778 2.33537,0.41709 -2.13686,0.65366 0.0971,0.81906 7.57615,0.56094 6.72689,-0.23217 9.12861,-0.0834 6.56599,0.40662 -2.37529,0.45423 5.11863,0.76636 18.18274,0.75734 12.57931,-0.009 20.25071,-0.32964 17.67767,-0.73957 -2.99277,-0.47681 -1.26729,-0.60983 5.05077,-0.38939 6.73373,0.23496 8.8431,0.0541 7.07106,-0.60622 -1.83285,-0.683 -0.86331,-0.79751 3.53554,-0.4176 4.56376,0.39416 5.68662,0.24822 4.54568,-0.5908 -1.14585,-0.84264 -0.4375,-0.9497 2.90577,-0.43917 3.17651,0.48508 4.2219,0.35298 3.71372,-0.46925 -0.50553,-0.81798 0.53845,-0.97025 3.66024,-0.53388 3.34884,0.46811 4.01408,0.34713 2.85226,-0.51872 -1.16583,-0.86884 -0.58351,-0.98669 2.52538,-0.51109 3.17444,0.48563 3.71579,0.36787 2.52538,-0.54931 -1.22069,-0.9405 -0.9787,-1.0505 1.2449,-0.56587 3.923,0.855 11.43936,-0.44128 9.69627,-1.67224 -0.90935,-0.64218 -0.441,-0.75233 1.44658,-0.34024 3.79036,0.82749 16.36666,-1.51227 14.65666,-2.7268 -0.82522,-0.58612 -0.27891,-0.69306 1.52572,-0.29866 1.5981,0.34926 12.41391,-1.14119 25.06356,-3.45383 12.23877,-2.23752 23.24706,-4.10017 24.46287,-4.13921 2.13965,-0.0687 2.14576,-0.1005 0.19026,-0.99054 -1.40439,-0.63921 -0.48053,-0.7691 3.03046,-0.42606 3.60498,0.35223 4.47245,0.22236 3.03046,-0.45369 -1.97758,-0.92714 -1.97485,-0.94868 0.12885,-1.01818 4.21122,-0.13912 4.72331,1.96581 3.50748,14.41733 -0.61753,6.3243 -2.002,14.93641 -3.07658,19.13801 -9.44293,36.9215 -36.7417,63.0417 -81.11431,77.61236 -13.21392,4.33906 -35.71541,9.14842 -52.21433,11.16003 -6.57197,0.80128 -9.61453,1.50987 -8.08122,1.88207 1.35257,0.32832 -25.49676,0.68613 -59.66517,0.79513 -34.16841,0.109 -68.48834,0.38032 -76.26652,0.60294 -9.77802,0.27987 -12.2718,0.15714 -8.08122,-0.39768 z"
       id="path4148"
       inkscape:connector-curvature="0" />
  </g>
</svg>
